<svg xmlns="http://www.w3.org/2000/svg" viewBox="0 0 1193.88 785.35"><g id="Layer_2" data-name="Layer 2"><g id="Layer_1-2" data-name="Layer 1"><path d="M273.06,230.7a108.54,108.54,0,0,1-43.5-8.55,102.33,102.33,0,0,1-34.35-24,110.38,110.38,0,0,1-22.65-36.45q-8.1-21-8.1-46.2t8.1-46.2a112.1,112.1,0,0,1,22.65-36.6A101.33,101.33,0,0,1,229.56,8.55,108.54,108.54,0,0,1,273.06,0Q295.85,0,314,8.1A98.25,98.25,0,0,1,344.61,29Q357,41.7,362.46,55.8l-21.6,10.5a69.7,69.7,0,0,0-25.8-32.1q-17.42-11.7-42-11.7t-43.8,11.7a80.62,80.62,0,0,0-30,32.55q-10.8,20.85-10.8,48.75,0,27.6,10.8,48.6a79.37,79.37,0,0,0,30,32.55q19.19,11.55,43.8,11.55,21.88,0,39.45-9.6a73.06,73.06,0,0,0,27.75-26.25q10.19-16.65,10.2-38.25V121.8l10.8,10.8h-88.2v-21h101.4v18.6a102.75,102.75,0,0,1-7.8,40.35,96.29,96.29,0,0,1-53.85,52.8A106.46,106.46,0,0,1,273.06,230.7Z"/><path d="M414.06,36.6V3.6h22.5v33Zm0,190.5V66.3h22.5V227.1Z"/><path d="M482.75,227.1V66.3h22.5V92.7l-3-3.9a42.13,42.13,0,0,1,17.25-18q11.55-6.6,28-6.6h10.2V86.7h-14.1q-17.4,0-27.9,10.8t-10.5,30.6v99Z"/><path d="M584.15,268.72V0h22.5V268.72Z"/><path d="M708.65,230.7q-23.1,0-40.5-11.7A66.19,66.19,0,0,1,643,187.2l18.9-9a57.9,57.9,0,0,0,19.35,23.4,46.85,46.85,0,0,0,27.45,8.7q14.4,0,24.3-7.05t9.9-18.45q0-8.4-4.8-13.35A33.94,33.94,0,0,0,727,163.8a75.41,75.41,0,0,0-11.1-3.9l-23.1-6.6q-22.2-6.3-32.1-17.7a39.05,39.05,0,0,1-9.9-26.4q0-14.1,7.2-24.6a47.09,47.09,0,0,1,19.5-16.2,64.15,64.15,0,0,1,27.3-5.7,67.33,67.33,0,0,1,37,10.65,57.51,57.51,0,0,1,23.55,29.55l-19.2,9A49,49,0,0,0,728.9,90.75a43.58,43.58,0,0,0-25-7.65q-13.5,0-21.6,6.9a21.89,21.89,0,0,0-8.1,17.4c0,5.4,1.39,9.7,4.2,12.9a27.13,27.13,0,0,0,9.75,7.2,81,81,0,0,0,9.75,3.6l26.7,7.8q19.5,5.7,30.45,17.7a41.83,41.83,0,0,1,3.6,51.9,48.53,48.53,0,0,1-20.25,16.35Q725.45,230.7,708.65,230.7Z"/><path d="M333.37,494.68l-64.2-223.51h24.3L349,471.27h-5.1l57-200.1h25.5l56.7,200.1h-5.4l55.8-200.1h24.3l-64.2,223.51h-25.5l-57.3-201h5.4l-57.3,201Z"/><path d="M584.17,494.68V267.57h22.5v97.5l-5.1-1.2a50.34,50.34,0,0,1,19.65-24.6q13.65-9,31.65-9a61,61,0,0,1,30.75,7.8,57.9,57.9,0,0,1,21.6,21.45,60,60,0,0,1,7.95,30.75V536.8h-22.5V399q0-14.69-5.4-24.9a39.07,39.07,0,0,0-14.85-15.75A41.68,41.68,0,0,0,649,352.77a42.46,42.46,0,0,0-21.6,5.55,39.4,39.4,0,0,0-15.15,15.9q-5.55,10.36-5.55,24.75v95.71Z"/><path d="M831.37,498.27A80,80,0,0,1,790,487.32a80.8,80.8,0,0,1-29.55-30q-11-19-10.95-43.35,0-24,10.8-42.9a80.64,80.64,0,0,1,29.25-29.85q18.45-10.94,41.85-11t41.85,10.8a78.31,78.31,0,0,1,29.1,29.7Q913,389.69,913,414q0,24.61-11.1,43.66a81.34,81.34,0,0,1-29.55,29.84A79.47,79.47,0,0,1,831.37,498.27Zm0-22.5a54.42,54.42,0,0,0,29.25-8.09,58.31,58.31,0,0,0,20.7-22.21A64.91,64.91,0,0,0,889,414a63.31,63.31,0,0,0-7.65-31.2,59,59,0,0,0-20.7-21.9,56.86,56.86,0,0,0-58.5,0,60.16,60.16,0,0,0-20.85,21.9,62.24,62.24,0,0,0-7.8,31.2,63.81,63.81,0,0,0,7.8,31.5,59.46,59.46,0,0,0,20.85,22.21A54.42,54.42,0,0,0,831.37,475.77Z"/><path d="M236.76,753.85a108.57,108.57,0,0,1-43.5-8.55,102.43,102.43,0,0,1-34.35-24,110.55,110.55,0,0,1-22.65-36.45q-8.1-21-8.1-46.2t8.1-46.2a112.27,112.27,0,0,1,22.65-36.6,101.43,101.43,0,0,1,34.35-24.15,108.57,108.57,0,0,1,43.5-8.55q22.8,0,40.95,8.1a98,98,0,0,1,30.6,20.85q12.45,12.75,17.85,26.85l-22.5,9.9A71.62,71.62,0,0,0,278,557.5q-17.25-11.85-41.25-11.85-24.6,0-43.8,11.7a80.69,80.69,0,0,0-30,32.55q-10.8,20.85-10.8,48.75,0,27.6,10.8,48.6a79.43,79.43,0,0,0,30,32.55q19.2,11.55,43.8,11.55,24,0,41.25-11.7a70.66,70.66,0,0,0,25.65-31.2l22.5,9.9q-5.4,13.8-17.85,26.55a98,98,0,0,1-30.6,20.85Q259.56,753.85,236.76,753.85Z"/><path d="M438.06,753.85a80.08,80.08,0,0,1-41.4-11,80.94,80.94,0,0,1-29.55-30q-11-19-10.95-43.35,0-24,10.8-42.9a80.56,80.56,0,0,1,29.25-29.85q18.45-10.95,41.85-10.95t41.85,10.8a78.31,78.31,0,0,1,29.1,29.7q10.65,18.9,10.65,43.2,0,24.6-11.1,43.65A81.37,81.37,0,0,1,479,743.05,79.57,79.57,0,0,1,438.06,753.85Zm0-22.5a54.34,54.34,0,0,0,29.25-8.1,58.29,58.29,0,0,0,20.7-22.2,65,65,0,0,0,7.65-31.5,63.26,63.26,0,0,0-7.65-31.2,58.89,58.89,0,0,0-20.7-21.9,56.86,56.86,0,0,0-58.5,0A60.08,60.08,0,0,0,388,638.35a62.19,62.19,0,0,0-7.8,31.2,63.86,63.86,0,0,0,7.8,31.5,59.43,59.43,0,0,0,20.85,22.2A54.34,54.34,0,0,0,438.06,731.35Z"/><path d="M631.86,753.85q-22.5,0-40.5-11a78,78,0,0,1-28.35-30q-10.35-19-10.35-43,0-24.3,10.35-43.2a78.63,78.63,0,0,1,28.2-29.85q17.85-10.95,40.65-10.95,20.7,0,36.9,9a67.72,67.72,0,0,1,25.5,24.3l-3.6,6.3V523.15h22.5v227.1h-22.5v-36l3.6,3.3a60.29,60.29,0,0,1-25,26.85Q652.56,753.85,631.86,753.85Zm1.2-22.5a54.34,54.34,0,0,0,29.25-8.1,58.58,58.58,0,0,0,20.7-22,68.06,68.06,0,0,0,0-62.7,58.58,58.58,0,0,0-20.7-22,54.34,54.34,0,0,0-29.25-8.1,53,53,0,0,0-28.8,8.1A57,57,0,0,0,584,638.35q-7.35,13.8-7.35,31.5A66.21,66.21,0,0,0,584,701.2a57.1,57.1,0,0,0,20.1,22A52.83,52.83,0,0,0,633.06,731.35Z"/><path d="M832.56,753.85a77.13,77.13,0,0,1-40.65-11,78.28,78.28,0,0,1-28.65-30.15q-10.51-19.2-10.5-43.5t10.2-43a77.34,77.34,0,0,1,27.75-29.55,73.73,73.73,0,0,1,39.45-10.8q17.39,0,31.05,6.45a70.89,70.89,0,0,1,23.25,17.4,80.1,80.1,0,0,1,19.8,52.65c0,2-.11,4.25-.3,6.75s-.51,5-.9,7.65H767.16v-21h123l-10.8,9q2.7-16.5-3.75-29.55a50.8,50.8,0,0,0-18.45-20.7,49.21,49.21,0,0,0-27-7.65,52.14,52.14,0,0,0-27.75,7.8,53.76,53.76,0,0,0-19.95,21.75q-7.2,14-5.7,33.15-1.51,19.2,6.15,33.45a55.06,55.06,0,0,0,21,22,55.82,55.82,0,0,0,28.65,7.8q17.69,0,29.7-8.4a67.71,67.71,0,0,0,19.5-21l19.2,10.2a61.1,61.1,0,0,1-14.7,20,77.17,77.17,0,0,1-23.55,14.7A79.41,79.41,0,0,1,832.56,753.85Z"/><path d="M123,203.06,0,144.56v-20.4l123-58.5V90L16.2,138.86v-9L123,178.76Z"/><path d="M921.19,785.35l101.4-247.2h26.1l-101.4,247.2Z"/><path d="M1070.88,737.65v-24.3l106.8-48.9v9l-106.8-48.9v-24.3l123,58.5v20.4Z"/></g></g></svg>